<svg xmlns="http://www.w3.org/2000/svg" xmlns:xlink="http://www.w3.org/1999/xlink" width="500" zoomAndPan="magnify" viewBox="0 0 375 374.999991" height="500" preserveAspectRatio="xMidYMid meet" version="1.0"><defs><clipPath id="id1"><path d="M 95.664062 87 L 278.917969 87 L 278.917969 375 L 95.664062 375 Z M 95.664062 87 " clip-rule="nonzero"/></clipPath></defs><path fill="#000000" d="M 225.804688 38.121094 C 226.769531 59.609375 210.292969 77.8125 189 78.777344 C 167.710938 79.738281 149.671875 63.066406 148.710938 41.539062 C 147.746094 20.050781 164.222656 1.847656 185.511719 0.882812 C 206.804688 -0.078125 224.84375 16.59375 225.804688 38.121094 " fill-opacity="1" fill-rule="nonzero"/><g clip-path="url(#id1)"><path fill="#000000" d="M 277.820312 189.820312 L 251.050781 117.007812 C 244.738281 99.667969 227.796875 87.84375 209.296875 87.84375 L 165.21875 87.878906 C 146.683594 87.878906 130.175781 99.269531 123.464844 117.007812 L 96.691406 190.25 C 93.539062 198.488281 97.890625 207.953125 106.160156 210.710938 C 114.429688 213.867188 123.863281 209.515625 126.621094 201.277344 L 144.324219 152.816406 L 144.324219 355.601562 C 144.324219 365.433594 151.433594 374.101562 161.265625 374.898438 C 172.292969 376.0625 181.726562 367.425781 181.726562 356.398438 L 181.726562 236.6875 C 181.726562 233.53125 184.117188 231.171875 187.242188 231.171875 C 190.394531 231.171875 192.753906 233.53125 192.753906 236.6875 L 192.753906 355.601562 C 192.753906 365.433594 199.863281 374.101562 209.695312 374.898438 C 220.722656 376.0625 230.15625 367.425781 230.15625 356.398438 L 230.15625 152.816406 L 247.894531 201.277344 C 250.253906 207.554688 256.53125 211.90625 262.839844 211.90625 C 265.597656 211.90625 268.753906 211.109375 271.511719 209.515625 C 277.820312 205.597656 280.546875 196.925781 277.820312 189.851562 L 277.820312 189.820312 " fill-opacity="1" fill-rule="nonzero"/></g></svg>