<svg xmlns="http://www.w3.org/2000/svg" xmlns:xlink="http://www.w3.org/1999/xlink" width="500" zoomAndPan="magnify" viewBox="0 0 375 374.999991" height="500" preserveAspectRatio="xMidYMid meet" version="1.0"><defs><clipPath id="id1"><path d="M 37 0 L 333 0 L 333 292 L 37 292 Z M 37 0 " clip-rule="nonzero"/></clipPath><clipPath id="id2"><path d="M 185.152344 -46.652344 L 377.484375 288.308594 L 189.515625 396.234375 L -2.816406 61.273438 Z M 185.152344 -46.652344 " clip-rule="nonzero"/></clipPath><clipPath id="id3"><path d="M 185.152344 -46.652344 L 377.484375 288.308594 L 129.027344 430.964844 L -63.304688 96.007812 Z M 185.152344 -46.652344 " clip-rule="nonzero"/></clipPath></defs><g clip-path="url(#id1)"><g clip-path="url(#id2)"><g clip-path="url(#id3)"><path fill="#000000" d="M 290.566406 209.730469 C 275.746094 201.113281 262.636719 194.453125 247.964844 187.742188 L 220.828125 16.296875 C 220.652344 15.1875 219.988281 14.210938 219.011719 13.644531 L 198.050781 1.464844 C 195.679688 0.0859375 192.675781 1.648438 192.449219 4.386719 L 179.597656 158.625 C 157.566406 149.394531 130.765625 138.027344 96.246094 122.785156 L 74.992188 52.230469 C 74.53125 50.707031 73.515625 49.417969 72.140625 48.621094 L 55.015625 38.667969 C 51.09375 36.386719 46.128906 38.910156 45.65625 43.417969 L 37.59375 120.050781 C 36.84375 127.164062 40.34375 134.054688 46.527344 137.648438 L 313.230469 288.527344 C 344.933594 306.949219 337.609375 237.0625 290.566406 209.730469 " fill-opacity="1" fill-rule="nonzero"/></g></g></g><path stroke-linecap="round" transform="matrix(21.771259, 0, 0, 21.749999, 63.299048, 319.472821)" fill="none" stroke-linejoin="miter" d="M 0.49995 -0.0000075573 L 13.831029 -0.0000075573 " stroke="#000000" stroke-width="1" stroke-opacity="1" stroke-miterlimit="4"/></svg>