<svg xmlns="http://www.w3.org/2000/svg" xmlns:xlink="http://www.w3.org/1999/xlink" width="500" zoomAndPan="magnify" viewBox="0 0 375 374.999991" height="500" preserveAspectRatio="xMidYMid meet" version="1.0"><path fill="#000000" d="M 39.765625 31.421875 L 104.5 31.421875 L 104.5 44.300781 C 104.5 60.320312 117.609375 73.417969 133.640625 73.417969 C 149.671875 73.417969 162.785156 60.320312 162.785156 44.300781 L 162.785156 31.421875 L 212.671875 31.421875 L 212.671875 44.300781 C 212.671875 60.320312 225.777344 73.417969 241.804688 73.417969 C 257.839844 73.417969 270.957031 60.320312 270.957031 44.300781 L 270.957031 31.421875 L 335.691406 31.421875 C 342.304688 31.421875 348.316406 34.121094 352.667969 38.472656 C 357.019531 42.816406 359.726562 48.828125 359.726562 55.441406 L 359.726562 122.640625 L 15.726562 122.640625 L 15.726562 55.441406 C 15.726562 48.828125 18.433594 42.816406 22.785156 38.472656 C 27.136719 34.121094 33.144531 31.421875 39.765625 31.421875 Z M 359.726562 149.519531 L 359.726562 351.125 C 359.726562 357.738281 357.019531 363.753906 352.667969 368.089844 C 348.316406 372.4375 342.304688 375.144531 335.691406 375.144531 L 39.765625 375.144531 C 33.144531 375.144531 27.136719 372.4375 22.785156 368.089844 C 18.433594 363.753906 15.726562 357.738281 15.726562 351.125 L 15.726562 149.519531 L 36.914062 149.519531 L 36.914062 351.125 C 36.914062 351.894531 37.234375 352.605469 37.75 353.128906 C 38.28125 353.65625 38.988281 353.984375 39.765625 353.984375 L 335.691406 353.984375 C 336.460938 353.984375 337.175781 353.65625 337.695312 353.128906 C 338.214844 352.605469 338.546875 351.894531 338.546875 351.125 L 338.546875 149.519531 Z M 154.558594 149.519531 L 216.679688 149.519531 L 216.679688 187.210938 L 154.558594 187.210938 Z M 67.972656 290.894531 L 130.097656 290.894531 L 130.097656 328.5625 L 67.972656 328.5625 Z M 241.148438 290.894531 L 303.277344 290.894531 L 303.277344 328.5625 L 241.148438 328.5625 Z M 154.558594 290.894531 L 216.679688 290.894531 L 216.679688 328.5625 L 154.558594 328.5625 Z M 67.972656 220.210938 L 130.097656 220.210938 L 130.097656 257.886719 L 67.972656 257.886719 Z M 241.148438 220.210938 L 303.277344 220.210938 L 303.277344 257.886719 L 241.148438 257.886719 Z M 154.558594 220.210938 L 216.679688 220.210938 L 216.679688 257.886719 L 154.558594 257.886719 Z M 67.972656 149.519531 L 130.097656 149.519531 L 130.097656 187.210938 L 67.972656 187.210938 Z M 241.148438 149.519531 L 303.277344 149.519531 L 303.277344 187.210938 L 241.148438 187.210938 Z M 133.640625 0 C 123.453125 0 115.089844 8.371094 115.089844 18.539062 L 115.089844 44.300781 C 115.089844 54.476562 123.453125 62.835938 133.640625 62.835938 C 143.820312 62.835938 152.191406 54.476562 152.191406 44.300781 L 152.191406 18.539062 C 152.191406 8.371094 143.820312 0 133.640625 0 Z M 241.804688 0 C 231.625 0 223.253906 8.371094 223.253906 18.539062 L 223.253906 44.300781 C 223.253906 54.476562 231.625 62.835938 241.804688 62.835938 C 251.984375 62.835938 260.363281 54.476562 260.363281 44.300781 L 260.363281 18.539062 C 260.363281 8.371094 251.984375 0 241.804688 0 Z M 241.804688 0 " fill-opacity="1" fill-rule="nonzero"/></svg>