<svg xmlns="http://www.w3.org/2000/svg" xmlns:xlink="http://www.w3.org/1999/xlink" width="500" zoomAndPan="magnify" viewBox="0 0 375 374.999991" height="500" preserveAspectRatio="xMidYMid meet" version="1.0"><path fill="#000000" d="M 318.730469 359.972656 L 324.890625 365.601562 L 321.394531 358.117188 C 322.125 357.421875 322.886719 356.765625 323.683594 356.152344 L 362.597656 317.097656 C 363.152344 316.527344 363.679688 315.929688 364.179688 315.308594 C 364.675781 314.6875 365.140625 314.042969 365.578125 313.375 C 366.011719 312.707031 366.414062 312.019531 366.785156 311.3125 C 367.15625 310.609375 367.488281 309.886719 367.789062 309.148438 C 368.089844 308.410156 368.351562 307.65625 368.578125 306.894531 C 368.804688 306.128906 368.996094 305.355469 369.148438 304.574219 C 369.300781 303.792969 369.414062 303.003906 369.492188 302.210938 C 369.570312 301.417969 369.609375 300.621094 369.609375 299.824219 C 369.609375 299.027344 369.570312 298.234375 369.492188 297.441406 C 369.414062 296.644531 369.300781 295.859375 369.148438 295.078125 C 368.996094 294.292969 368.804688 293.519531 368.578125 292.757812 C 368.351562 291.992188 368.089844 291.242188 367.789062 290.503906 C 367.488281 289.765625 367.15625 289.042969 366.785156 288.335938 C 366.414062 287.628906 366.011719 286.945312 365.578125 286.277344 C 365.140625 285.609375 364.675781 284.964844 364.179688 284.34375 C 363.679688 283.71875 363.152344 283.125 362.597656 282.550781 L 314.316406 234.355469 C 313.75 233.796875 313.160156 233.261719 312.542969 232.757812 C 311.925781 232.253906 311.285156 231.78125 310.621094 231.339844 C 309.957031 230.898438 309.273438 230.492188 308.570312 230.117188 C 307.867188 229.742188 307.148438 229.40625 306.410156 229.101562 C 305.675781 228.796875 304.925781 228.53125 304.160156 228.300781 C 303.398438 228.070312 302.628906 227.875 301.847656 227.722656 C 301.066406 227.566406 300.277344 227.449219 299.484375 227.371094 C 298.691406 227.296875 297.898438 227.257812 297.101562 227.257812 C 296.304688 227.257812 295.507812 227.296875 294.71875 227.371094 C 293.925781 227.449219 293.136719 227.566406 292.355469 227.722656 C 291.574219 227.875 290.800781 228.070312 290.039062 228.300781 C 289.277344 228.53125 288.527344 228.796875 287.792969 229.101562 C 287.054688 229.40625 286.335938 229.742188 285.632812 230.117188 C 284.929688 230.492188 284.246094 230.898438 283.582031 231.339844 C 282.917969 231.78125 282.277344 232.253906 281.660156 232.757812 C 281.042969 233.261719 280.453125 233.796875 279.886719 234.355469 L 248.195312 265.710938 C 247.839844 266.054688 247.457031 266.359375 247.050781 266.632812 C 246.640625 266.90625 246.210938 267.140625 245.757812 267.339844 C 245.308594 267.535156 244.84375 267.691406 244.363281 267.808594 C 243.886719 267.921875 243.402344 267.996094 242.910156 268.023438 C 242.417969 268.054688 241.929688 268.039062 241.441406 267.984375 C 240.953125 267.925781 240.472656 267.828125 240 267.683594 C 239.53125 267.542969 239.074219 267.359375 238.636719 267.136719 C 238.195312 266.917969 237.78125 266.65625 237.386719 266.359375 C 214.648438 248.214844 192.921875 228.929688 172.203125 208.5 C 151.695312 187.707031 132.414062 165.828125 114.355469 142.871094 C 114.023438 142.5 113.734375 142.097656 113.480469 141.671875 C 113.226562 141.242188 113.011719 140.792969 112.84375 140.328125 C 112.671875 139.859375 112.550781 139.378906 112.46875 138.886719 C 112.390625 138.398438 112.355469 137.902344 112.371094 137.40625 C 112.382812 136.90625 112.441406 136.417969 112.546875 135.929688 C 112.652344 135.445312 112.804688 134.972656 113 134.511719 C 113.191406 134.054688 113.429688 133.621094 113.703125 133.207031 C 113.980469 132.792969 114.292969 132.40625 114.644531 132.054688 L 146.386719 100.699219 C 146.945312 100.121094 147.472656 99.519531 147.972656 98.890625 C 148.46875 98.265625 148.9375 97.613281 149.375 96.941406 C 149.8125 96.269531 150.214844 95.578125 150.585938 94.863281 C 150.953125 94.152344 151.289062 93.425781 151.589844 92.683594 C 151.890625 91.9375 152.152344 91.183594 152.382812 90.414062 C 152.609375 89.644531 152.800781 88.867188 152.953125 88.078125 C 153.105469 87.292969 153.21875 86.5 153.296875 85.699219 C 153.375 84.902344 153.414062 84.101562 153.414062 83.300781 C 153.414062 82.496094 153.375 81.695312 153.296875 80.898438 C 153.21875 80.101562 153.105469 79.308594 152.953125 78.519531 C 152.800781 77.734375 152.609375 76.953125 152.382812 76.183594 C 152.152344 75.417969 151.890625 74.660156 151.589844 73.917969 C 151.289062 73.171875 150.953125 72.445312 150.585938 71.734375 C 150.214844 71.023438 149.8125 70.332031 149.375 69.65625 C 148.9375 68.984375 148.46875 68.335938 147.972656 67.707031 C 147.472656 67.078125 146.945312 66.476562 146.386719 65.898438 L 98.085938 17.597656 C 97.5 17.054688 96.890625 16.539062 96.257812 16.054688 C 95.625 15.570312 94.972656 15.113281 94.296875 14.6875 C 93.621094 14.265625 92.929688 13.871094 92.214844 13.511719 C 91.503906 13.152344 90.777344 12.828125 90.035156 12.535156 C 89.292969 12.246094 88.539062 11.988281 87.769531 11.769531 C 87.003906 11.546875 86.230469 11.363281 85.445312 11.214844 C 84.660156 11.066406 83.875 10.953125 83.078125 10.878906 C 82.285156 10.804688 81.488281 10.769531 80.691406 10.769531 C 79.894531 10.769531 79.097656 10.804688 78.304688 10.878906 C 77.511719 10.953125 76.722656 11.066406 75.9375 11.214844 C 75.152344 11.363281 74.378906 11.546875 73.613281 11.769531 C 72.847656 11.988281 72.089844 12.246094 71.347656 12.535156 C 70.605469 12.828125 69.878906 13.152344 69.167969 13.511719 C 68.457031 13.871094 67.761719 14.265625 67.085938 14.6875 C 66.410156 15.113281 65.757812 15.570312 65.125 16.054688 C 64.492188 16.539062 63.882812 17.054688 63.296875 17.597656 L 23.804688 57.515625 C 23.503906 57.851562 23.136719 58.09375 22.707031 58.238281 C 22.492188 58.707031 21.535156 60.417969 21.410156 60.5625 C 1.59375 89.410156 34.757812 172.640625 121.398438 259.347656 C 184.457031 322.832031 255.851562 365.273438 298.335938 365.273438 C 301.925781 365.449219 305.457031 365.085938 308.9375 364.183594 C 312.414062 363.277344 315.679688 361.875 318.730469 359.972656 Z M 318.730469 359.972656 " fill-opacity="1" fill-rule="nonzero"/></svg>