<svg xmlns="http://www.w3.org/2000/svg" xmlns:xlink="http://www.w3.org/1999/xlink" width="500" zoomAndPan="magnify" viewBox="0 0 375 374.999991" height="500" preserveAspectRatio="xMidYMid meet" version="1.0"><defs><clipPath id="id1"><path d="M 0 304 L 327 304 L 327 326.53125 L 0 326.53125 Z M 0 304 " clip-rule="nonzero"/></clipPath><clipPath id="id2"><path d="M 5 48.28125 L 353 48.28125 L 353 257 L 5 257 Z M 5 48.28125 " clip-rule="nonzero"/></clipPath></defs><g clip-path="url(#id1)"><path fill="#000000" d="M 315.488281 304.175781 L 11.285156 304.175781 C 5.097656 304.175781 0.09375 309.183594 0.09375 315.363281 C 0.09375 321.539062 5.097656 326.546875 11.285156 326.546875 L 315.488281 326.546875 C 321.675781 326.546875 326.679688 321.539062 326.679688 315.363281 C 326.679688 309.183594 321.675781 304.175781 315.488281 304.175781 " fill-opacity="1" fill-rule="nonzero"/></g><g clip-path="url(#id2)"><path fill="#000000" d="M 266.824219 83.484375 C 252.40625 91.800781 240.460938 99.621094 227.71875 108.730469 L 70.246094 48.679688 C 69.226562 48.289062 68.082031 48.375 67.132812 48.925781 L 46.746094 60.6875 C 44.4375 62.019531 44.300781 65.304688 46.496094 66.820312 L 170.148438 152.234375 C 151.726562 166.328125 129.195312 183.402344 99.675781 205.101562 L 29.996094 188.882812 C 28.492188 188.535156 26.914062 188.769531 25.574219 189.539062 L 8.917969 199.152344 C 5.101562 201.351562 4.824219 206.75 8.394531 209.328125 L 69.015625 253.179688 C 74.644531 257.253906 82.136719 257.636719 88.152344 254.167969 L 344.128906 102.503906 C 374.964844 84.714844 312.582031 57.082031 266.824219 83.484375 " fill-opacity="1" fill-rule="nonzero"/></g></svg>