<svg xmlns="http://www.w3.org/2000/svg" xmlns:xlink="http://www.w3.org/1999/xlink" width="500" zoomAndPan="magnify" viewBox="0 0 375 374.999991" height="500" preserveAspectRatio="xMidYMid meet" version="1.0"><path fill="#000000" d="M 120.53125 127.234375 C 120.53125 128.246094 120.480469 129.253906 120.382812 130.257812 C 120.28125 131.261719 120.136719 132.261719 119.9375 133.25 C 119.742188 134.242188 119.496094 135.21875 119.203125 136.1875 C 118.910156 137.152344 118.570312 138.105469 118.183594 139.035156 C 117.796875 139.96875 117.363281 140.882812 116.890625 141.773438 C 116.414062 142.664062 115.894531 143.527344 115.332031 144.367188 C 114.773438 145.207031 114.171875 146.019531 113.53125 146.800781 C 112.890625 147.582031 112.210938 148.328125 111.496094 149.042969 C 110.785156 149.757812 110.035156 150.433594 109.253906 151.074219 C 108.472656 151.714844 107.664062 152.316406 106.824219 152.878906 C 105.984375 153.4375 105.117188 153.957031 104.226562 154.433594 C 103.335938 154.910156 102.425781 155.339844 101.492188 155.726562 C 100.558594 156.113281 99.609375 156.453125 98.640625 156.746094 C 97.675781 157.039062 96.699219 157.285156 95.707031 157.484375 C 94.714844 157.679688 93.71875 157.828125 92.714844 157.925781 C 91.707031 158.027344 90.699219 158.074219 89.691406 158.074219 C 88.679688 158.074219 87.671875 158.027344 86.667969 157.925781 C 85.660156 157.828125 84.664062 157.679688 83.671875 157.484375 C 82.683594 157.285156 81.703125 157.039062 80.738281 156.746094 C 79.769531 156.453125 78.820312 156.113281 77.886719 155.726562 C 76.953125 155.339844 76.042969 154.910156 75.152344 154.433594 C 74.261719 153.957031 73.394531 153.4375 72.554688 152.878906 C 71.714844 152.316406 70.90625 151.714844 70.125 151.074219 C 69.34375 150.433594 68.597656 149.757812 67.882812 149.042969 C 67.167969 148.328125 66.492188 147.582031 65.851562 146.800781 C 65.210938 146.019531 64.609375 145.207031 64.046875 144.367188 C 63.484375 143.527344 62.96875 142.664062 62.492188 141.773438 C 62.015625 140.882812 61.582031 139.96875 61.199219 139.035156 C 60.8125 138.105469 60.472656 137.152344 60.179688 136.1875 C 59.882812 135.21875 59.640625 134.242188 59.441406 133.25 C 59.246094 132.261719 59.097656 131.261719 59 130.257812 C 58.898438 129.253906 58.851562 128.246094 58.851562 127.234375 C 58.851562 126.226562 58.898438 125.21875 59 124.210938 C 59.097656 123.207031 59.246094 122.207031 59.441406 121.21875 C 59.640625 120.226562 59.882812 119.25 60.179688 118.28125 C 60.472656 117.316406 60.8125 116.367188 61.199219 115.433594 C 61.582031 114.5 62.015625 113.585938 62.492188 112.695312 C 62.96875 111.804688 63.484375 110.941406 64.046875 110.101562 C 64.609375 109.261719 65.210938 108.449219 65.851562 107.671875 C 66.492188 106.890625 67.167969 106.140625 67.882812 105.425781 C 68.597656 104.714844 69.34375 104.035156 70.125 103.394531 C 70.90625 102.753906 71.714844 102.152344 72.554688 101.59375 C 73.394531 101.03125 74.261719 100.511719 75.152344 100.035156 C 76.042969 99.558594 76.953125 99.128906 77.886719 98.742188 C 78.820312 98.355469 79.769531 98.015625 80.738281 97.722656 C 81.703125 97.429688 82.683594 97.183594 83.671875 96.988281 C 84.664062 96.789062 85.660156 96.640625 86.667969 96.542969 C 87.671875 96.445312 88.679688 96.394531 89.691406 96.394531 C 90.699219 96.394531 91.707031 96.445312 92.714844 96.542969 C 93.71875 96.640625 94.714844 96.789062 95.707031 96.988281 C 96.699219 97.183594 97.675781 97.429688 98.640625 97.722656 C 99.609375 98.015625 100.558594 98.355469 101.492188 98.742188 C 102.425781 99.128906 103.335938 99.558594 104.226562 100.035156 C 105.117188 100.511719 105.984375 101.03125 106.824219 101.59375 C 107.664062 102.152344 108.472656 102.753906 109.253906 103.394531 C 110.035156 104.035156 110.785156 104.714844 111.496094 105.425781 C 112.210938 106.140625 112.890625 106.890625 113.53125 107.671875 C 114.171875 108.449219 114.773438 109.261719 115.332031 110.101562 C 115.894531 110.941406 116.414062 111.804688 116.890625 112.695312 C 117.363281 113.585938 117.796875 114.5 118.183594 115.433594 C 118.570312 116.367188 118.910156 117.316406 119.203125 118.28125 C 119.496094 119.25 119.742188 120.226562 119.9375 121.21875 C 120.136719 122.207031 120.28125 123.207031 120.382812 124.210938 C 120.480469 125.21875 120.53125 126.226562 120.53125 127.234375 Z M 120.53125 127.234375 " fill-opacity="1" fill-rule="nonzero"/><path fill="#000000" d="M 68.386719 165.523438 L 126.9375 165.523438 L 126.9375 127.160156 C 126.9375 121.199219 131.777344 116.359375 137.738281 116.359375 C 143.699219 116.359375 148.539062 121.199219 148.539062 127.160156 L 148.539062 182.957031 L 57.582031 182.957031 C 55.722656 182.957031 54.304688 181.464844 54.304688 179.679688 C 54.230469 171.855469 60.5625 165.523438 68.386719 165.523438 Z M 68.386719 165.523438 " fill-opacity="1" fill-rule="nonzero"/><path fill="#000000" d="M 338.421875 133.789062 C 252.832031 80.601562 155.988281 103.097656 155.988281 103.097656 L 155.988281 202.84375 C 155.988281 207.910156 160.609375 212.007812 166.34375 212.007812 L 346.914062 212.007812 C 352.652344 212.007812 357.269531 207.910156 357.269531 202.84375 L 357.269531 166.417969 C 357.34375 153.457031 350.417969 141.238281 338.421875 133.789062 Z M 338.421875 133.789062 " fill-opacity="1" fill-rule="nonzero"/><path fill="#000000" d="M 367.699219 193.535156 L 362.933594 193.535156 L 362.933594 207.015625 C 362.933594 213.796875 356.898438 219.234375 349.449219 219.234375 L 163.8125 219.234375 C 156.363281 219.234375 150.328125 213.722656 150.328125 207.015625 L 150.328125 193.535156 L 40.003906 193.535156 L 40.003906 65.777344 C 40.003906 63.765625 38.363281 62.054688 36.277344 62.054688 L 3.726562 62.054688 C 1.714844 62.054688 0 63.691406 0 65.777344 L 0 305.273438 C 0 309.519531 3.425781 312.945312 7.671875 312.945312 L 32.253906 312.945312 C 36.5 312.945312 39.929688 309.519531 39.929688 305.273438 L 39.929688 258.640625 L 334.996094 258.640625 L 334.996094 305.273438 C 334.996094 309.519531 338.421875 312.945312 342.667969 312.945312 L 367.253906 312.945312 C 371.5 312.945312 374.925781 309.519531 374.925781 305.273438 L 374.925781 200.761719 C 375 196.8125 371.722656 193.535156 367.699219 193.535156 Z M 367.699219 193.535156 " fill-opacity="1" fill-rule="nonzero"/></svg>