<svg xmlns="http://www.w3.org/2000/svg" xmlns:xlink="http://www.w3.org/1999/xlink" width="500" zoomAndPan="magnify" viewBox="0 0 375 374.999991" height="500" preserveAspectRatio="xMidYMid meet" version="1.0"><path fill="#000000" d="M 187.507812 100.210938 C 189.085938 100.210938 190.65625 100.132812 192.226562 99.980469 C 193.792969 99.824219 195.351562 99.59375 196.894531 99.285156 C 198.441406 98.980469 199.96875 98.597656 201.476562 98.140625 C 202.984375 97.683594 204.46875 97.152344 205.921875 96.550781 C 207.378906 95.945312 208.800781 95.273438 210.191406 94.53125 C 211.582031 93.789062 212.933594 92.980469 214.242188 92.105469 C 215.554688 91.230469 216.816406 90.292969 218.035156 89.292969 C 219.253906 88.292969 220.421875 87.238281 221.535156 86.121094 C 222.648438 85.007812 223.707031 83.84375 224.707031 82.625 C 225.707031 81.40625 226.644531 80.144531 227.519531 78.832031 C 228.394531 77.523438 229.203125 76.175781 229.945312 74.785156 C 230.691406 73.394531 231.363281 71.972656 231.964844 70.519531 C 232.570312 69.0625 233.097656 67.582031 233.554688 66.074219 C 234.015625 64.566406 234.398438 63.039062 234.703125 61.496094 C 235.011719 59.949219 235.242188 58.394531 235.398438 56.824219 C 235.550781 55.257812 235.628906 53.6875 235.628906 52.109375 C 235.628906 50.535156 235.550781 48.964844 235.398438 47.398438 C 235.242188 45.828125 235.011719 44.273438 234.703125 42.726562 C 234.398438 41.183594 234.015625 39.65625 233.558594 38.148438 C 233.097656 36.640625 232.570312 35.160156 231.964844 33.703125 C 231.363281 32.25 230.691406 30.828125 229.949219 29.4375 C 229.203125 28.046875 228.394531 26.699219 227.519531 25.390625 C 226.644531 24.078125 225.707031 22.816406 224.707031 21.597656 C 223.707031 20.378906 222.648438 19.214844 221.535156 18.101562 C 220.421875 16.984375 219.253906 15.929688 218.039062 14.929688 C 216.820312 13.929688 215.554688 12.992188 214.246094 12.117188 C 212.933594 11.242188 211.585938 10.433594 210.195312 9.691406 C 208.804688 8.949219 207.382812 8.277344 205.925781 7.671875 C 204.46875 7.070312 202.988281 6.539062 201.480469 6.082031 C 199.972656 5.625 198.445312 5.242188 196.898438 4.9375 C 195.355469 4.628906 193.796875 4.398438 192.230469 4.242188 C 190.660156 4.089844 189.089844 4.011719 187.511719 4.011719 C 185.9375 4.011719 184.363281 4.089844 182.796875 4.242188 C 181.226562 4.398438 179.671875 4.628906 178.125 4.9375 C 176.582031 5.242188 175.054688 5.625 173.546875 6.082031 C 172.039062 6.539062 170.554688 7.070312 169.101562 7.671875 C 167.644531 8.277344 166.222656 8.949219 164.832031 9.691406 C 163.441406 10.433594 162.089844 11.242188 160.78125 12.117188 C 159.472656 12.992188 158.207031 13.929688 156.988281 14.929688 C 155.769531 15.929688 154.605469 16.984375 153.488281 18.097656 C 152.375 19.210938 151.320312 20.378906 150.320312 21.597656 C 149.320312 22.8125 148.382812 24.078125 147.507812 25.386719 C 146.628906 26.695312 145.820312 28.046875 145.078125 29.433594 C 144.335938 30.824219 143.664062 32.246094 143.058594 33.703125 C 142.457031 35.15625 141.925781 36.640625 141.46875 38.144531 C 141.011719 39.652344 140.628906 41.179688 140.320312 42.722656 C 140.015625 44.269531 139.78125 45.824219 139.628906 47.394531 C 139.472656 48.960938 139.398438 50.53125 139.398438 52.109375 C 139.398438 53.683594 139.476562 55.253906 139.628906 56.824219 C 139.785156 58.390625 140.015625 59.945312 140.324219 61.492188 C 140.628906 63.039062 141.011719 64.5625 141.46875 66.070312 C 141.929688 67.578125 142.457031 69.0625 143.0625 70.515625 C 143.664062 71.972656 144.335938 73.394531 145.082031 74.785156 C 145.824219 76.171875 146.632812 77.523438 147.507812 78.832031 C 148.382812 80.140625 149.320312 81.40625 150.320312 82.625 C 151.320312 83.84375 152.375 85.007812 153.492188 86.121094 C 154.605469 87.234375 155.769531 88.292969 156.988281 89.292969 C 158.207031 90.292969 159.472656 91.230469 160.78125 92.105469 C 162.089844 92.980469 163.441406 93.789062 164.832031 94.53125 C 166.21875 95.273438 167.644531 95.945312 169.097656 96.550781 C 170.554688 97.152344 172.035156 97.683594 173.542969 98.140625 C 175.050781 98.597656 176.578125 98.980469 178.125 99.285156 C 179.667969 99.59375 181.226562 99.824219 182.792969 99.980469 C 184.359375 100.132812 185.933594 100.210938 187.507812 100.210938 Z M 187.507812 100.210938 " fill-opacity="1" fill-rule="nonzero"/><path fill="#000000" d="M 314.53125 34.390625 C 313.960938 33.921875 313.367188 33.480469 312.753906 33.066406 C 312.136719 32.65625 311.503906 32.273438 310.851562 31.925781 C 310.199219 31.574219 309.53125 31.257812 308.847656 30.972656 C 308.164062 30.6875 307.46875 30.4375 306.761719 30.222656 C 306.054688 30.007812 305.335938 29.828125 304.609375 29.679688 C 303.882812 29.535156 303.152344 29.425781 302.417969 29.351562 C 301.679688 29.277344 300.941406 29.242188 300.203125 29.242188 C 299.460938 29.238281 298.722656 29.273438 297.984375 29.347656 C 297.25 29.417969 296.515625 29.523438 295.792969 29.667969 C 295.066406 29.8125 294.347656 29.988281 293.640625 30.203125 C 292.929688 30.417969 292.234375 30.664062 291.550781 30.949219 C 290.863281 31.230469 290.195312 31.546875 289.542969 31.894531 C 288.890625 32.242188 288.253906 32.621094 287.636719 33.03125 C 287.023438 33.441406 286.429688 33.878906 285.855469 34.347656 C 285.28125 34.816406 284.734375 35.3125 284.210938 35.835938 C 283.683594 36.359375 283.1875 36.90625 282.71875 37.476562 L 240.210938 89.332031 C 238.632812 91.261719 236.949219 93.097656 235.164062 94.839844 C 233.382812 96.582031 231.507812 98.21875 229.542969 99.753906 C 227.578125 101.289062 225.535156 102.710938 223.410156 104.019531 C 221.289062 105.332031 219.101562 106.519531 216.847656 107.585938 C 214.59375 108.652344 212.285156 109.589844 209.929688 110.402344 C 207.570312 111.214844 205.175781 111.894531 202.742188 112.441406 C 200.308594 112.988281 197.851562 113.398438 195.375 113.671875 C 192.894531 113.949219 190.410156 114.085938 187.917969 114.085938 L 187.09375 114.085938 C 184.597656 114.085938 182.113281 113.949219 179.632812 113.671875 C 177.15625 113.398438 174.699219 112.988281 172.265625 112.441406 C 169.835938 111.894531 167.4375 111.214844 165.082031 110.402344 C 162.722656 109.59375 160.417969 108.652344 158.164062 107.585938 C 155.910156 106.519531 153.722656 105.332031 151.597656 104.023438 C 149.476562 102.714844 147.433594 101.292969 145.46875 99.757812 C 143.503906 98.222656 141.628906 96.582031 139.84375 94.839844 C 138.0625 93.097656 136.378906 91.265625 134.796875 89.335938 L 92.292969 37.480469 C 91.824219 36.90625 91.324219 36.359375 90.800781 35.835938 C 90.277344 35.316406 89.730469 34.820312 89.15625 34.351562 C 88.582031 33.882812 87.988281 33.441406 87.371094 33.03125 C 86.757812 32.621094 86.121094 32.242188 85.46875 31.894531 C 84.816406 31.546875 84.148438 31.230469 83.460938 30.949219 C 82.777344 30.667969 82.082031 30.417969 81.371094 30.207031 C 80.664062 29.992188 79.945312 29.8125 79.21875 29.671875 C 78.496094 29.527344 77.761719 29.417969 77.027344 29.347656 C 76.289062 29.277344 75.550781 29.242188 74.808594 29.242188 C 74.070312 29.242188 73.332031 29.28125 72.59375 29.355469 C 71.859375 29.425781 71.128906 29.535156 70.402344 29.683594 C 69.675781 29.828125 68.957031 30.007812 68.25 30.222656 C 67.542969 30.441406 66.847656 30.691406 66.164062 30.972656 C 65.480469 31.257812 64.8125 31.574219 64.160156 31.925781 C 63.507812 32.273438 62.875 32.65625 62.257812 33.066406 C 61.644531 33.480469 61.050781 33.921875 60.480469 34.390625 C 59.90625 34.859375 59.359375 35.359375 58.835938 35.882812 C 58.3125 36.40625 57.820312 36.953125 57.351562 37.527344 C 56.882812 38.101562 56.441406 38.695312 56.03125 39.308594 C 55.621094 39.925781 55.242188 40.5625 54.894531 41.214844 C 54.546875 41.867188 54.230469 42.535156 53.949219 43.21875 C 53.664062 43.902344 53.417969 44.601562 53.203125 45.308594 C 52.988281 46.015625 52.8125 46.734375 52.667969 47.460938 C 52.523438 48.1875 52.417969 48.917969 52.34375 49.65625 C 52.273438 50.390625 52.238281 51.128906 52.238281 51.871094 C 52.242188 52.609375 52.277344 53.347656 52.351562 54.085938 C 52.425781 54.820312 52.535156 55.550781 52.679688 56.277344 C 52.828125 57.003906 53.007812 57.71875 53.222656 58.425781 C 53.4375 59.136719 53.6875 59.832031 53.972656 60.515625 C 54.257812 61.199219 54.574219 61.867188 54.925781 62.515625 C 55.273438 63.167969 55.65625 63.804688 56.066406 64.417969 C 56.480469 65.03125 56.921875 65.625 57.390625 66.195312 L 132.914062 158.335938 L 132.914062 350.980469 C 132.910156 351.722656 132.941406 352.460938 133.011719 353.203125 C 133.082031 353.941406 133.1875 354.675781 133.328125 355.40625 C 133.46875 356.132812 133.644531 356.855469 133.859375 357.566406 C 134.070312 358.277344 134.316406 358.976562 134.597656 359.664062 C 134.878906 360.351562 135.195312 361.023438 135.542969 361.679688 C 135.890625 362.335938 136.269531 362.972656 136.679688 363.59375 C 137.089844 364.210938 137.53125 364.808594 138 365.386719 C 138.46875 365.960938 138.964844 366.511719 139.488281 367.039062 C 140.011719 367.566406 140.5625 368.066406 141.132812 368.539062 C 141.707031 369.011719 142.300781 369.453125 142.917969 369.867188 C 143.535156 370.28125 144.171875 370.664062 144.828125 371.015625 C 145.480469 371.367188 146.152344 371.683594 146.835938 371.96875 C 147.523438 372.253906 148.222656 372.507812 148.933594 372.722656 C 149.644531 372.9375 150.363281 373.121094 151.089844 373.265625 C 151.820312 373.410156 152.554688 373.519531 153.292969 373.59375 C 154.03125 373.664062 154.773438 373.703125 155.515625 373.703125 C 156.257812 373.703125 157 373.664062 157.738281 373.59375 C 158.480469 373.519531 159.214844 373.410156 159.941406 373.265625 C 160.671875 373.121094 161.390625 372.9375 162.101562 372.722656 C 162.8125 372.507812 163.511719 372.253906 164.195312 371.96875 C 164.882812 371.683594 165.550781 371.367188 166.207031 371.015625 C 166.859375 370.664062 167.496094 370.28125 168.113281 369.867188 C 168.730469 369.453125 169.324219 369.011719 169.898438 368.539062 C 170.472656 368.066406 171.019531 367.566406 171.542969 367.039062 C 172.066406 366.511719 172.566406 365.960938 173.035156 365.386719 C 173.503906 364.808594 173.945312 364.210938 174.355469 363.59375 C 174.765625 362.972656 175.144531 362.335938 175.492188 361.679688 C 175.839844 361.023438 176.152344 360.351562 176.433594 359.664062 C 176.714844 358.976562 176.964844 358.277344 177.175781 357.566406 C 177.386719 356.855469 177.566406 356.132812 177.707031 355.40625 C 177.847656 354.675781 177.953125 353.941406 178.019531 353.203125 C 178.089844 352.460938 178.121094 351.722656 178.117188 350.980469 L 178.117188 254.101562 C 178.109375 253.484375 178.164062 252.871094 178.273438 252.261719 C 178.386719 251.652344 178.554688 251.0625 178.78125 250.484375 C 179.007812 249.910156 179.285156 249.363281 179.617188 248.839844 C 179.949219 248.316406 180.328125 247.832031 180.753906 247.386719 C 181.179688 246.9375 181.644531 246.535156 182.148438 246.175781 C 182.65625 245.816406 183.1875 245.511719 183.75 245.253906 C 184.316406 245 184.898438 244.800781 185.5 244.660156 C 186.101562 244.515625 186.710938 244.433594 187.328125 244.410156 C 187.953125 244.398438 188.570312 244.445312 189.183594 244.558594 C 189.800781 244.671875 190.394531 244.839844 190.976562 245.070312 C 191.554688 245.300781 192.105469 245.589844 192.628906 245.929688 C 193.152344 246.269531 193.632812 246.65625 194.078125 247.09375 C 194.523438 247.53125 194.921875 248.007812 195.273438 248.523438 C 195.621094 249.039062 195.917969 249.585938 196.160156 250.160156 C 196.402344 250.734375 196.585938 251.328125 196.707031 251.9375 C 196.832031 252.550781 196.890625 253.167969 196.894531 253.789062 L 196.894531 350.980469 C 196.886719 351.722656 196.921875 352.460938 196.988281 353.203125 C 197.058594 353.941406 197.164062 354.675781 197.304688 355.40625 C 197.445312 356.132812 197.621094 356.855469 197.835938 357.566406 C 198.046875 358.277344 198.292969 358.976562 198.574219 359.664062 C 198.855469 360.351562 199.171875 361.023438 199.519531 361.679688 C 199.867188 362.335938 200.246094 362.972656 200.65625 363.59375 C 201.066406 364.210938 201.507812 364.808594 201.976562 365.386719 C 202.445312 365.960938 202.941406 366.511719 203.46875 367.039062 C 203.992188 367.566406 204.539062 368.066406 205.113281 368.539062 C 205.683594 369.011719 206.28125 369.453125 206.898438 369.867188 C 207.515625 370.28125 208.148438 370.664062 208.804688 371.015625 C 209.457031 371.367188 210.128906 371.683594 210.816406 371.96875 C 211.5 372.253906 212.199219 372.503906 212.910156 372.722656 C 213.621094 372.9375 214.339844 373.117188 215.070312 373.265625 C 215.796875 373.410156 216.53125 373.519531 217.269531 373.59375 C 218.011719 373.664062 218.75 373.703125 219.496094 373.703125 C 220.238281 373.703125 220.976562 373.664062 221.71875 373.59375 C 222.457031 373.519531 223.191406 373.410156 223.917969 373.265625 C 224.648438 373.117188 225.367188 372.9375 226.078125 372.722656 C 226.789062 372.503906 227.488281 372.253906 228.171875 371.96875 C 228.859375 371.683594 229.53125 371.367188 230.183594 371.015625 C 230.839844 370.664062 231.476562 370.28125 232.089844 369.867188 C 232.707031 369.453125 233.304688 369.011719 233.875 368.539062 C 234.449219 368.066406 234.996094 367.566406 235.523438 367.039062 C 236.046875 366.511719 236.542969 365.960938 237.011719 365.386719 C 237.480469 364.808594 237.921875 364.210938 238.332031 363.59375 C 238.742188 362.972656 239.121094 362.335938 239.46875 361.679688 C 239.816406 361.023438 240.132812 360.351562 240.414062 359.664062 C 240.695312 358.976562 240.941406 358.277344 241.152344 357.566406 C 241.367188 356.855469 241.542969 356.132812 241.683594 355.40625 C 241.824219 354.675781 241.929688 353.941406 242 353.203125 C 242.066406 352.460938 242.101562 351.722656 242.097656 350.980469 L 242.097656 158.335938 L 317.617188 66.195312 C 318.089844 65.625 318.53125 65.03125 318.941406 64.417969 C 319.355469 63.804688 319.734375 63.167969 320.085938 62.515625 C 320.4375 61.867188 320.753906 61.199219 321.039062 60.515625 C 321.320312 59.832031 321.570312 59.136719 321.789062 58.425781 C 322.003906 57.71875 322.183594 57.003906 322.332031 56.277344 C 322.476562 55.550781 322.585938 54.820312 322.660156 54.085938 C 322.734375 53.347656 322.769531 52.609375 322.769531 51.871094 C 322.773438 51.128906 322.738281 50.390625 322.664062 49.65625 C 322.59375 48.917969 322.488281 48.1875 322.34375 47.460938 C 322.199219 46.734375 322.019531 46.015625 321.808594 45.308594 C 321.59375 44.601562 321.34375 43.902344 321.0625 43.21875 C 320.78125 42.535156 320.464844 41.867188 320.117188 41.214844 C 319.769531 40.5625 319.390625 39.925781 318.980469 39.308594 C 318.570312 38.695312 318.128906 38.101562 317.660156 37.527344 C 317.191406 36.953125 316.695312 36.40625 316.171875 35.882812 C 315.652344 35.359375 315.105469 34.859375 314.53125 34.390625 Z M 314.53125 34.390625 " fill-opacity="1" fill-rule="nonzero"/></svg>