<svg xmlns="http://www.w3.org/2000/svg" xmlns:xlink="http://www.w3.org/1999/xlink" width="500" zoomAndPan="magnify" viewBox="0 0 375 374.999991" height="500" preserveAspectRatio="xMidYMid meet" version="1.0"><defs><clipPath id="id1"><path d="M 129 76.640625 L 245 76.640625 L 245 192 L 129 192 Z M 129 76.640625 " clip-rule="nonzero"/></clipPath><clipPath id="id2"><path d="M 96 201 L 277 201 L 277 298.640625 L 96 298.640625 Z M 96 201 " clip-rule="nonzero"/></clipPath></defs><path fill="#000000" d="M 10.027344 267.988281 L 77.15625 267.988281 C 79.800781 267.988281 81.949219 265.859375 81.949219 263.199219 L 81.949219 256.476562 C 81.949219 236.507812 91.195312 218.6875 105.628906 207.097656 C 108.378906 204.890625 108.105469 200.511719 104.914062 199.015625 C 97.773438 195.664062 89.8125 193.789062 81.433594 193.789062 L 55.75 193.789062 C 25.039062 193.789062 0.140625 218.726562 0.140625 249.476562 L 0.144531 258.113281 C 0.144531 263.574219 4.566406 267.988281 10.023438 267.988281 " fill-opacity="1" fill-rule="nonzero"/><path fill="#000000" d="M 24.769531 142.828125 C 24.769531 167.0625 44.390625 186.710938 68.59375 186.710938 C 92.796875 186.710938 112.417969 167.0625 112.417969 142.828125 C 112.417969 118.59375 92.796875 98.949219 68.59375 98.949219 C 44.390625 98.949219 24.769531 118.59375 24.769531 142.828125 " fill-opacity="1" fill-rule="nonzero"/><path fill="#000000" d="M 319.246094 193.789062 L 293.515625 193.789062 C 284.773438 193.789062 276.46875 195.839844 269.105469 199.46875 C 265.933594 201.023438 265.402344 205.28125 268.160156 207.53125 C 282.292969 219.121094 291.332031 236.742188 291.332031 256.476562 L 291.332031 263.199219 C 291.332031 265.859375 293.476562 267.988281 296.113281 267.988281 L 364.980469 267.988281 C 370.433594 267.988281 374.863281 263.574219 374.863281 258.113281 L 374.863281 249.476562 C 374.863281 218.726562 349.960938 193.789062 319.246094 193.789062 " fill-opacity="1" fill-rule="nonzero"/><path fill="#000000" d="M 306.390625 98.949219 C 282.195312 98.949219 262.566406 118.597656 262.566406 142.828125 C 262.566406 167.0625 282.195312 186.707031 306.390625 186.707031 C 330.605469 186.707031 350.214844 167.0625 350.214844 142.828125 C 350.214844 118.597656 330.605469 98.949219 306.390625 98.949219 " fill-opacity="1" fill-rule="nonzero"/><g clip-path="url(#id1)"><path fill="#000000" d="M 186.636719 191.878906 C 218.429688 191.878906 244.179688 166.085938 244.179688 134.265625 C 244.179688 102.445312 218.429688 76.648438 186.636719 76.648438 C 154.855469 76.648438 129.089844 102.445312 129.089844 134.265625 C 129.089844 166.085938 154.855469 191.878906 186.636719 191.878906 " fill-opacity="1" fill-rule="nonzero"/></g><g clip-path="url(#id2)"><path fill="#000000" d="M 96.746094 263 L 96.746094 298.148438 C 96.746094 298.421875 96.957031 298.640625 97.21875 298.640625 L 276.054688 298.640625 C 276.308594 298.640625 276.527344 298.421875 276.527344 298.148438 L 276.527344 263 C 276.527344 228.878906 248.886719 201.203125 214.804688 201.203125 L 158.476562 201.203125 C 124.382812 201.203125 96.746094 228.878906 96.746094 263 " fill-opacity="1" fill-rule="nonzero"/></g></svg>