<svg xmlns="http://www.w3.org/2000/svg" xmlns:xlink="http://www.w3.org/1999/xlink" width="500" zoomAndPan="magnify" viewBox="0 0 375 374.999991" height="500" preserveAspectRatio="xMidYMid meet" version="1.0"><defs><clipPath id="id1"><path d="M 0 172.109375 L 204 172.109375 L 204 330.183594 L 0 330.183594 Z M 0 172.109375 " clip-rule="nonzero"/></clipPath></defs><path fill="#100f0d" d="M 168.507812 68.707031 C 168.507812 66.714844 170.101562 65.15625 172.0625 65.15625 L 203.183594 65.15625 C 205.179688 65.15625 206.738281 66.714844 206.738281 68.707031 L 206.738281 84.078125 L 168.507812 84.078125 Z M 88.125 241.222656 L 173.621094 241.222656 C 174.417969 236.476562 177.175781 232.558594 180.730469 229.40625 L 183.488281 227.414062 C 188.601562 223.097656 195.3125 220.742188 202.386719 220.742188 C 207.535156 220.742188 212.253906 221.902344 217.003906 224.257812 L 223.679688 228.210938 L 243.773438 210.085938 L 213.847656 181.339844 C 209.097656 176.625 206.738281 169.917969 207.933594 163.214844 C 209.097656 156.542969 213.449219 151.03125 219.359375 147.878906 C 224.875 145.121094 230.789062 143.925781 236.699219 143.925781 C 243.011719 143.925781 248.921875 145.488281 254.835938 148.277344 L 293.070312 167.164062 L 308.015625 153.785156 L 308.015625 104.921875 C 308.015625 93.503906 298.550781 84.441406 287.554688 84.441406 L 227.632812 84.441406 L 227.632812 68.707031 C 227.632812 55.296875 216.605469 44.675781 203.582031 44.675781 L 172.460938 44.675781 C 159.039062 44.675781 148.410156 55.695312 148.410156 68.707031 L 148.410156 84.078125 L 88.125 84.078125 C 76.695312 84.078125 67.628906 93.503906 67.628906 104.523438 L 67.628906 220.34375 C 67.230469 232.160156 76.695312 241.222656 88.125 241.222656 " fill-opacity="1" fill-rule="nonzero"/><path fill="#100f0d" d="M 364.78125 143.925781 C 350.996094 144.324219 337.976562 149.4375 327.714844 158.5 L 295.394531 186.847656 L 247.328125 163.214844 C 240.621094 160.058594 232.746094 160.058594 226.46875 163.214844 C 223.679688 164.410156 223.3125 167.960938 225.640625 169.917969 L 268.222656 211.28125 L 225.640625 248.691406 L 208.699219 239.230469 C 203.980469 236.476562 198.070312 237.273438 193.71875 240.425781 L 190.996094 242.382812 C 189 243.976562 189 247.128906 190.996094 248.292969 L 214.246094 266.417969 C 217.765625 269.171875 220.523438 272.722656 222.484375 276.640625 L 235.503906 303.03125 C 236.699219 305.421875 239.457031 305.785156 241.417969 304.226562 L 244.175781 302.265625 C 248.523438 298.714844 250.085938 293.203125 248.523438 288.058594 L 243.375 269.570312 L 288.71875 235.679688 L 320.238281 286.101562 C 321.800781 288.457031 325.386719 288.855469 326.949219 286.5 C 331.300781 280.589844 332.863281 273.121094 331.300781 266.019531 L 317.882812 214.433594 L 352.160156 188.839844 C 363.222656 180.542969 370.695312 168.722656 373.851562 155.746094 C 375.410156 149.4375 370.695312 143.925781 364.78125 143.925781 " fill-opacity="1" fill-rule="nonzero"/><g clip-path="url(#id1)"><path fill="#100f0d" d="M 180.730469 277.039062 L 180.332031 277.4375 C 170.101562 283.746094 159.4375 289.652344 148.410156 294.367188 C 137.382812 299.113281 125.957031 302.632812 114.53125 305.023438 C 103.105469 307.378906 90.878906 308.175781 79.453125 306.980469 C 68.027344 305.785156 56.601562 303.03125 46.335938 297.917969 C 36.503906 292.808594 27.4375 285.304688 21.890625 275.480469 C 16.375 266.019531 13.21875 254.597656 14.015625 243.179688 C 14.816406 231.761719 18.367188 219.945312 23.882812 209.289062 C 29.398438 198.664062 36.871094 188.441406 45.175781 179.378906 C 46.734375 177.785156 46.734375 175.03125 45.175781 173.472656 C 43.578125 171.878906 40.824219 171.878906 39.230469 173.472656 C 29.796875 182.535156 21.125 192.757812 14.414062 204.175781 C 7.308594 215.59375 2.191406 228.609375 0.632812 242.382812 C -1.363281 256.160156 1.429688 271.128906 8.105469 283.746094 C 14.816406 296.722656 25.445312 306.980469 37.667969 314.449219 C 49.890625 321.953125 63.675781 326.265625 77.0625 328.65625 C 90.878906 330.617188 104.664062 330.617188 118.449219 329.023438 C 132.269531 327.460938 145.253906 323.910156 158.277344 319.59375 C 171.265625 315.246094 183.488281 309.335938 195.3125 303.03125 C 195.710938 303.03125 195.710938 302.632812 196.109375 302.632812 C 202.785156 298.316406 205.179688 289.652344 200.828125 282.949219 C 196.476562 275.082031 187.839844 272.722656 180.730469 277.039062 " fill-opacity="1" fill-rule="nonzero"/></g></svg>