<svg xmlns="http://www.w3.org/2000/svg" xmlns:xlink="http://www.w3.org/1999/xlink" width="500" zoomAndPan="magnify" viewBox="0 0 375 374.999991" height="500" preserveAspectRatio="xMidYMid meet" version="1.0"><path fill="#000000" d="M 223.03125 0.671875 C 307.332031 1.597656 374.921875 70.699219 373.996094 155 C 373.074219 239.289062 303.980469 306.886719 219.671875 305.960938 C 188.542969 305.621094 158.261719 295.761719 132.875 277.710938 L 45.691406 364.882812 C 35.707031 374.734375 19.613281 374.632812 9.761719 364.636719 C 0.0078125 354.75 0.0078125 338.847656 9.761719 328.949219 L 96.945312 241.777344 C 48.082031 173.085938 64.175781 77.773438 132.875 28.90625 C 159.195312 10.207031 190.753906 0.320312 223.03125 0.671875 Z M 224.867188 27.09375 C 155.25 25.148438 97.230469 79.996094 95.285156 149.628906 C 95.257812 150.851562 95.230469 152.078125 95.230469 153.296875 C 95.203125 222.941406 151.644531 279.429688 221.28125 279.46875 C 290.929688 279.496094 347.417969 223.066406 347.453125 153.414062 C 347.453125 153.378906 347.453125 153.34375 347.453125 153.304688 C 347.527344 84.976562 293.175781 29.003906 224.867188 27.09375 Z M 224.867188 27.09375 " fill-opacity="1" fill-rule="nonzero"/><path fill="#000000" d="M 255.386719 59.78125 C 248.484375 57.3125 240.890625 60.894531 238.414062 67.796875 C 235.957031 74.652344 239.476562 82.207031 246.308594 84.738281 C 275.140625 95.230469 294.332031 122.636719 294.332031 153.3125 C 294.332031 160.648438 300.277344 166.59375 307.605469 166.59375 C 314.9375 166.59375 320.878906 160.648438 320.878906 153.3125 C 320.878906 111.472656 294.710938 74.089844 255.386719 59.78125 Z M 255.386719 59.78125 " fill-opacity="1" fill-rule="nonzero"/></svg>