<svg xmlns="http://www.w3.org/2000/svg" xmlns:xlink="http://www.w3.org/1999/xlink" width="500" zoomAndPan="magnify" viewBox="0 0 375 374.999991" height="500" preserveAspectRatio="xMidYMid meet" version="1.0"><defs><clipPath id="id1"><path d="M 41.933594 0 L 332.933594 0 L 332.933594 375 L 41.933594 375 Z M 41.933594 0 " clip-rule="nonzero"/></clipPath></defs><g clip-path="url(#id1)"><path fill="#000000" d="M 85.175781 302.367188 C 86.566406 285.554688 102.40625 269.304688 119.546875 266.957031 C 123.171875 266.460938 126.796875 266.234375 130.457031 266.234375 C 169.136719 266.257812 207.808594 266.199219 246.488281 266.265625 C 267.769531 266.3125 284.492188 279.808594 289.046875 300.347656 C 289.1875 300.957031 289.175781 301.585938 289.230469 302.367188 C 221.148438 302.367188 153.167969 302.367188 85.175781 302.367188 Z M 104.265625 244.664062 C 107.386719 221.636719 110.609375 198.609375 113.796875 175.582031 C 115.09375 166.25 116.105469 156.855469 117.746094 147.589844 C 120.394531 132.753906 133.863281 121.386719 149.359375 121.226562 C 174.550781 120.964844 199.765625 120.929688 224.957031 121.238281 C 242.589844 121.445312 255.195312 134.472656 257.523438 153.175781 C 260.207031 174.621094 263.375 195.996094 266.324219 217.40625 C 268.136719 230.605469 269.9375 243.804688 271.726562 257 C 271.816406 257.734375 271.738281 258.492188 271.738281 259.777344 C 262.148438 254.972656 252.410156 254.042969 242.347656 254.089844 C 205.558594 254.25 168.757812 254.25 131.96875 254.089844 C 121.910156 254.042969 112.167969 254.960938 102.625 259.753906 C 102.546875 254.386719 103.613281 249.535156 104.265625 244.664062 Z M 121.886719 60.75 C 165.683594 60.75 209.253906 60.75 253.039062 60.75 L 253.039062 77.8125 C 246.71875 75.757812 240.292969 73.945312 233.617188 73.191406 C 230.851562 72.878906 228.101562 72.765625 225.335938 72.765625 C 202.78125 72.742188 180.230469 72.902344 157.675781 72.695312 C 145.527344 72.582031 133.5625 73.234375 121.886719 77.8125 Z M 307.953125 302.457031 C 308.652344 301.21875 309.132812 300.382812 309.605469 299.535156 C 316.589844 287.011719 320.527344 273.617188 320.179688 259.238281 C 319.757812 241.464844 315.984375 224.066406 313.78125 206.488281 C 311.371094 187.300781 308.136719 168.199219 305.933594 148.980469 C 302.847656 121.871094 290.804688 100.402344 267.792969 85.367188 C 267.425781 85.128906 267.046875 84.910156 266.703125 84.644531 L 266.703125 60.667969 C 268.503906 60.667969 270.027344 60.667969 271.53125 60.667969 C 282.074219 60.609375 289.917969 52.859375 289.976562 42.410156 C 290.011719 38.25 290.011719 34.097656 289.976562 29.933594 C 289.839844 13.59375 276.5 0.234375 260.09375 0.210938 C 211.457031 0.164062 162.816406 0.175781 114.175781 0.210938 C 100.078125 0.222656 88.066406 10.132812 85.015625 24.007812 C 83.664062 30.117188 84.433594 36.300781 84.375 42.445312 C 84.28125 52.742188 92.1875 60.574219 102.441406 60.667969 C 104.09375 60.679688 105.769531 60.667969 107.523438 60.667969 L 107.523438 84.382812 C 107.097656 84.886719 106.582031 85.355469 105.882812 85.816406 C 88.640625 97.203125 76.835938 112.695312 71.480469 132.753906 C 67.753906 146.753906 66.902344 161.25 64.792969 175.527344 C 61.363281 198.769531 58.367188 222.070312 55.054688 245.339844 C 52.300781 264.640625 55.238281 282.847656 64.871094 299.902344 C 65.308594 300.679688 66.296875 301.335938 65.710938 302.609375 C 57.945312 302.609375 50.15625 302.609375 41.988281 302.609375 C 41.988281 309.050781 41.976562 315.097656 41.988281 321.128906 C 42.054688 350.757812 66.363281 375.058594 96.0625 375.082031 C 156.792969 375.117188 217.523438 375.140625 278.265625 375.046875 C 296.171875 375.023438 310.441406 367.320312 321.464844 353.375 C 333.40625 338.25 333.019531 320.566406 332.066406 302.457031 C 324.09375 302.457031 316.234375 302.457031 307.953125 302.457031 " fill-opacity="1" fill-rule="nonzero"/></g></svg>