<svg xmlns="http://www.w3.org/2000/svg" xmlns:xlink="http://www.w3.org/1999/xlink" width="500" zoomAndPan="magnify" viewBox="0 0 375 374.999991" height="500" preserveAspectRatio="xMidYMid meet" version="1.0"><defs><clipPath id="id1"><path d="M 0 10.910156 L 375 10.910156 L 375 355 L 0 355 Z M 0 10.910156 " clip-rule="nonzero"/></clipPath></defs><g clip-path="url(#id1)"><path fill="#000000" d="M 187.363281 292.847656 L 86.300781 292.847656 L 86.300781 324.84375 C 86.253906 363.667969 30.007812 364.128906 29.976562 324.84375 L 29.976562 292.847656 L 0.0742188 292.847656 L 0.0742188 192.691406 C 0.0703125 165.941406 21.664062 151.753906 33.914062 150.265625 L 64.746094 71.671875 C 70.4375 56.601562 82.992188 43.804688 106.699219 43.851562 L 150.742188 43.851562 L 150.742188 23.214844 C 150.636719 15.0625 155.089844 10.894531 162.332031 10.929688 L 213.09375 10.929688 C 220.261719 10.894531 224.714844 15.0625 224.683594 23.214844 L 224.683594 43.851562 L 268.261719 43.851562 C 291.851562 43.804688 304.40625 56.601562 310.214844 71.671875 L 341.046875 150.265625 C 353.183594 151.753906 374.796875 165.941406 374.886719 192.691406 L 374.886719 292.847656 L 344.753906 292.847656 L 344.753906 324.84375 C 344.859375 364.128906 288.613281 363.667969 288.660156 324.84375 L 288.660156 292.847656 L 187.363281 292.847656 " fill-opacity="1" fill-rule="nonzero"/></g><path fill="#ffffff" d="M 187.363281 148.410156 L 65.671875 148.410156 L 88.851562 87.4375 C 91.804688 78.820312 96.152344 72.539062 106.234375 72.367188 L 268.492188 72.367188 C 278.695312 72.539062 283.039062 78.820312 285.878906 87.4375 L 309.058594 148.410156 L 187.363281 148.410156 " fill-opacity="1" fill-rule="nonzero"/><path fill="#ffffff" d="M 58.949219 231.640625 C 44.679688 231.675781 33.042969 219.804688 32.988281 205.210938 C 33.042969 190.515625 44.679688 178.644531 58.949219 178.550781 C 73.375 178.644531 85.007812 190.515625 84.910156 205.210938 C 85.007812 219.804688 73.375 231.675781 58.949219 231.640625 " fill-opacity="1" fill-rule="nonzero"/><path fill="#ffffff" d="M 315.769531 231.640625 C 330.15625 231.675781 341.789062 219.804688 341.730469 205.210938 C 341.789062 190.515625 330.15625 178.644531 315.769531 178.550781 C 301.460938 178.644531 289.828125 190.515625 289.808594 205.210938 C 289.828125 219.804688 301.460938 231.675781 315.769531 231.640625 " fill-opacity="1" fill-rule="nonzero"/></svg>